<svg xmlns="http://www.w3.org/2000/svg" xmlns:xlink="http://www.w3.org/1999/xlink" width="500" zoomAndPan="magnify" viewBox="0 0 375 374.999991" height="500" preserveAspectRatio="xMidYMid meet" version="1.2"><defs><clipPath id="967c106f4d"><path d="M 6.464844 6.464844 L 368.535156 6.464844 L 368.535156 368.535156 L 6.464844 368.535156 Z M 6.464844 6.464844 "/></clipPath><clipPath id="7b73a2e881"><path d="M 187.5 6.464844 C 87.515625 6.464844 6.464844 87.515625 6.464844 187.5 C 6.464844 287.484375 87.515625 368.535156 187.5 368.535156 C 287.484375 368.535156 368.535156 287.484375 368.535156 187.5 C 368.535156 87.515625 287.484375 6.464844 187.5 6.464844 Z M 187.5 6.464844 "/></clipPath><clipPath id="892f5f28dc"><path d="M 70.8125 98.964844 L 304.0625 98.964844 L 304.0625 275.964844 L 70.8125 275.964844 Z M 70.8125 98.964844 "/></clipPath></defs><g id="4f5bbd1d01"><g clip-rule="nonzero" clip-path="url(#967c106f4d)"><g clip-rule="nonzero" clip-path="url(#7b73a2e881)"><path style=" stroke:none;fill-rule:nonzero;fill:#ffffff;fill-opacity:1;" d="M 6.464844 6.464844 L 368.535156 6.464844 L 368.535156 368.535156 L 6.464844 368.535156 Z M 6.464844 6.464844 "/></g></g><g clip-rule="nonzero" clip-path="url(#892f5f28dc)"><path style=" stroke:none;fill-rule:nonzero;fill:#000000;fill-opacity:1;" d="M 298.753906 174.671875 L 228.375 104.289062 C 224.957031 100.871094 220.414062 98.980469 215.589844 98.980469 C 210.761719 98.980469 206.21875 100.871094 202.800781 104.289062 C 199.382812 107.707031 197.492188 112.253906 197.492188 117.078125 C 197.492188 121.90625 199.382812 126.449219 202.800781 129.867188 L 242.292969 169.363281 L 88.910156 169.363281 C 78.9375 169.363281 70.8125 177.488281 70.8125 187.464844 C 70.8125 197.4375 78.9375 205.5625 88.910156 205.5625 L 242.292969 205.5625 L 202.800781 245.058594 C 199.382812 248.476562 197.492188 253.023438 197.492188 257.847656 C 197.492188 262.675781 199.382812 267.21875 202.800781 270.636719 C 206.21875 274.054688 210.761719 275.945312 215.589844 275.945312 C 220.414062 275.945312 224.957031 274.054688 228.375 270.636719 L 298.632812 200.375 C 302.09375 197.035156 304.023438 192.492188 304.023438 187.582031 C 304.0625 182.675781 302.210938 178.132812 298.753906 174.671875 Z M 298.753906 174.671875 "/></g></g></svg>