<svg xmlns="http://www.w3.org/2000/svg" xmlns:xlink="http://www.w3.org/1999/xlink" width="500" zoomAndPan="magnify" viewBox="0 0 375 374.999991" height="500" preserveAspectRatio="xMidYMid meet" version="1.2"><defs><clipPath id="6a8c062737"><path d="M 5.21875 10.4375 L 11.691406 10.4375 L 11.691406 16.910156 L 5.21875 16.910156 Z M 5.21875 10.4375 "/></clipPath><clipPath id="99dc414e99"><path d="M 8.453125 10.4375 C 6.667969 10.4375 5.21875 11.886719 5.21875 13.671875 C 5.21875 15.460938 6.667969 16.910156 8.453125 16.910156 C 10.242188 16.910156 11.691406 15.460938 11.691406 13.671875 C 11.691406 11.886719 10.242188 10.4375 8.453125 10.4375 Z M 8.453125 10.4375 "/></clipPath><clipPath id="5282cdb2ab"><path d="M 170 5.21875 L 235 5.21875 L 235 70 L 170 70 Z M 170 5.21875 "/></clipPath><clipPath id="3dde40d91d"><path d="M 11.691406 75 L 169 75 L 169 326 L 11.691406 326 Z M 11.691406 75 "/></clipPath><clipPath id="38d16559c9"><path d="M 51 5.21875 L 316 5.21875 L 316 310 L 51 310 Z M 51 5.21875 "/></clipPath><clipPath id="3b886d0096"><path d="M 94 106 L 329 106 L 329 369.71875 L 94 369.71875 Z M 94 106 "/></clipPath></defs><g id="1987aa8384"><g clip-rule="nonzero" clip-path="url(#6a8c062737)"><g clip-rule="nonzero" clip-path="url(#99dc414e99)"><path style=" stroke:none;fill-rule:nonzero;fill:#e1dfdf;fill-opacity:1;" d="M 5.21875 10.4375 L 11.691406 10.4375 L 11.691406 16.910156 L 5.21875 16.910156 Z M 5.21875 10.4375 "/></g></g><path style=" stroke:none;fill-rule:nonzero;fill:#0d6275;fill-opacity:1;" d="M 343.621094 97.210938 C 347.632812 97.113281 351.988281 97.949219 355.320312 100.332031 C 359.445312 103.277344 362.527344 107.421875 363.339844 112.519531 C 364.113281 117.363281 363.085938 122.574219 360.183594 126.566406 C 356.773438 131.257812 352.144531 133.464844 346.566406 134.316406 C 345.191406 134.335938 343.757812 134.414062 342.382812 134.222656 C 337.230469 133.464844 332.660156 131.082031 329.484375 126.898438 C 326.597656 123.097656 325.300781 117.769531 325.996094 113.0625 L 326.054688 112.714844 C 326.539062 109.398438 327.875 106.261719 330.105469 103.742188 C 333.726562 99.613281 338.21875 97.597656 343.640625 97.25 Z M 343.621094 97.210938 "/><g clip-rule="nonzero" clip-path="url(#5282cdb2ab)"><path style=" stroke:none;fill-rule:nonzero;fill:#189f8e;fill-opacity:1;" d="M 199.949219 5.949219 C 207.910156 5.25 215.132812 7.285156 221.507812 12.109375 C 228.324219 17.285156 232.703125 24.859375 233.84375 33.347656 C 234.949219 41.640625 232.140625 51 227.066406 57.605469 C 221.757812 64.503906 213.757812 68.207031 205.277344 69.308594 C 203.144531 69.484375 201.09375 69.523438 198.960938 69.308594 C 190.109375 68.398438 182.671875 64.136719 177.171875 57.160156 C 172.117188 50.746094 169.660156 42.261719 170.703125 34.121094 C 171.460938 28.191406 173.550781 22.746094 177.308594 18.039062 C 183.023438 10.890625 190.964844 6.957031 199.949219 5.929688 Z M 199.949219 5.949219 "/></g><path style=" stroke:none;fill-rule:nonzero;fill:#ea2e31;fill-opacity:1;" d="M 164.488281 112.65625 C 165.589844 112.714844 166.714844 112.714844 167.742188 113.121094 C 169.425781 113.796875 171.109375 115.136719 172.660156 116.085938 L 181.414062 121.335938 C 185.269531 119.050781 189.625 117.074219 193.695312 115.15625 C 194.992188 114.535156 196.617188 113.546875 198.011719 113.238281 C 198.671875 113.082031 199.332031 113.0625 199.890625 113.46875 C 200.375 113.816406 200.707031 114.457031 200.839844 115.019531 L 200.898438 115.269531 C 201.207031 116.648438 201.09375 118.140625 201.113281 119.535156 L 201.132812 126.683594 L 201.054688 154.0625 L 225.730469 154.082031 L 234.328125 154.082031 C 235.78125 154.082031 237.371094 153.964844 238.800781 154.140625 C 239.65625 154.238281 240.585938 154.664062 241.261719 155.207031 C 242.347656 156.058594 243.355469 157.628906 243.429688 159.023438 C 243.566406 160.960938 243.449219 162.976562 243.449219 164.914062 L 243.46875 175.550781 L 243.488281 183.417969 C 243.488281 184.8125 243.625 186.363281 243.429688 187.738281 C 243.277344 188.824219 242.695312 190.027344 241.941406 190.800781 C 241.164062 191.59375 240.042969 192.273438 238.9375 192.488281 C 237.871094 192.699219 236.554688 192.5625 235.472656 192.5625 L 228.402344 192.5625 L 201.074219 192.546875 L 201.09375 217.210938 L 201.09375 224.613281 C 201.09375 226.183594 201.226562 227.867188 200.800781 229.398438 C 200.453125 230.195312 200.105469 230.910156 199.523438 231.570312 C 198.496094 232.730469 197.082031 233.371094 195.535156 233.410156 L 176.417969 233.351562 C 172.929688 233.332031 169.039062 233.738281 165.609375 233.214844 C 164.410156 233.023438 162.957031 232.363281 162.085938 231.492188 C 161.386719 230.773438 160.921875 229.785156 160.789062 228.796875 C 160.246094 225.078125 160.632812 220.816406 160.613281 217.035156 L 160.59375 192.582031 L 134.484375 192.527344 L 127.183594 192.507812 C 125.769531 192.507812 124.238281 192.621094 122.824219 192.449219 C 121.800781 192.3125 120.753906 191.730469 119.980469 191.054688 C 118.796875 190.027344 118.214844 188.476562 118.175781 186.945312 L 118.160156 167.433594 L 118.160156 161.679688 C 118.160156 160.671875 118.042969 159.429688 118.273438 158.460938 C 118.507812 157.453125 119.144531 156.386719 119.863281 155.652344 C 120.636719 154.875 121.527344 154.390625 122.59375 154.21875 C 123.851562 154.003906 125.265625 154.121094 126.542969 154.121094 L 160.730469 154.121094 L 160.671875 129.203125 L 160.613281 120.695312 C 160.59375 119.203125 160.496094 117.636719 160.652344 116.144531 C 160.730469 115.328125 160.902344 114.726562 161.425781 114.089844 C 162.296875 113.003906 163.132812 112.734375 164.488281 112.636719 Z M 164.488281 112.65625 "/><g clip-rule="nonzero" clip-path="url(#3dde40d91d)"><path style=" stroke:none;fill-rule:nonzero;fill:#0d6275;fill-opacity:1;" d="M 42.660156 75.761719 C 41.34375 78.980469 39.621094 82.039062 38.167969 85.199219 C 36.8125 88.125 35.707031 91.148438 34.738281 94.207031 C 26.722656 119.785156 27.050781 147.960938 39.292969 172.140625 C 45.449219 184.289062 54.980469 195.722656 65.109375 204.753906 C 75.492188 214.015625 86.878906 222.035156 97.800781 230.621094 L 117.636719 247.652344 C 137.214844 265.945312 152.59375 287.917969 163.113281 312.5625 C 164.875 316.691406 166.695312 320.796875 168.089844 325.082031 L 156.527344 319.617188 L 122.34375 302.371094 C 103.011719 291.636719 85.347656 278.90625 68.613281 264.472656 L 58.777344 255.171875 C 36.695312 233.332031 19.382812 206.496094 13.820312 175.550781 C 13.105469 171.597656 12.484375 167.644531 12.214844 163.617188 C 11.730469 156.367188 11.691406 148.636719 12.71875 141.429688 C 13.355469 136.875 14.558594 132.359375 15.777344 127.925781 C 20.96875 109.207031 29.800781 90.46875 42.660156 75.722656 Z M 42.660156 75.761719 "/></g><g clip-rule="nonzero" clip-path="url(#38d16559c9)"><path style=" stroke:none;fill-rule:nonzero;fill:#189f8e;fill-opacity:1;" d="M 139.832031 75.9375 C 143.335938 76.75 146.84375 78.164062 150.175781 79.5 C 157.359375 82.371094 164.253906 85.625 170.996094 89.402344 C 175.332031 91.84375 179.730469 94.460938 183.777344 97.367188 C 183.835938 97.40625 183.894531 97.503906 183.972656 97.503906 C 184.398438 97.503906 185.851562 96.613281 186.296875 96.398438 C 192.917969 93.199219 199.464844 89.402344 205.703125 85.507812 C 211.359375 81.980469 216.957031 78.300781 222.105469 74.078125 C 239.75 59.601562 252.59375 39.800781 257.609375 17.4375 L 259.507812 5.871094 C 261.191406 15.597656 261 25.285156 260.222656 35.070312 C 259.585938 43.265625 258.65625 51.308594 255.867188 59.117188 C 265.007812 63.207031 274.1875 68.167969 282.285156 74.097656 C 293.554688 82.390625 303.277344 92.96875 310.695312 104.828125 C 312.1875 107.210938 313.777344 109.613281 315.074219 112.113281 L 304.597656 122.089844 C 303.839844 121.742188 303.125 120.871094 302.484375 120.328125 L 298.476562 117.226562 C 293.925781 113.933594 289.082031 110.949219 284.085938 108.371094 C 279.746094 106.125 275.195312 104.363281 270.585938 102.773438 C 244.652344 93.859375 216.820312 95.195312 191.175781 104.574219 L 182.519531 108.179688 C 170.492188 100.058594 157.261719 94.015625 143.433594 89.769531 C 142.367188 89.636719 141.207031 89.210938 140.140625 88.957031 L 133.75 87.640625 C 123.582031 85.953125 112.347656 87.058594 102.78125 91.011719 C 90.964844 95.875 81.261719 105.292969 76.4375 117.152344 C 73.882812 123.429688 72.703125 130.210938 72.683594 136.972656 C 72.664062 143.929688 74.113281 150.382812 76.632812 156.832031 C 80.914062 167.800781 88.175781 177.121094 96.234375 185.570312 C 105.046875 194.8125 114.867188 203.28125 124.703125 211.378906 C 132.761719 218.003906 141.03125 224.4375 148.488281 231.78125 C 157.496094 240.636719 165.53125 250.597656 170.472656 262.339844 C 175.738281 274.855469 177.871094 289.949219 176.011719 303.4375 C 175.757812 305.257812 175.625 307.699219 174.925781 309.40625 L 174.828125 309.40625 C 175.371094 301.925781 175.664062 295.183594 173.917969 287.800781 C 172.601562 282.277344 170.296875 277.027344 167.585938 272.046875 C 154.027344 247.1875 129.410156 231.742188 107.835938 214.632812 C 91.644531 201.808594 75.625 187.566406 64.488281 169.992188 C 61.914062 165.941406 59.53125 161.929688 57.652344 157.492188 C 51.027344 141.953125 49.34375 122.847656 55.851562 106.976562 C 61.71875 92.679688 72.757812 82.15625 86.9375 76.265625 C 99.933594 70.878906 114.148438 70.878906 127.824219 73.03125 C 131.695312 73.648438 136.210938 74.40625 139.871094 75.917969 Z M 139.832031 75.9375 "/></g><g clip-rule="nonzero" clip-path="url(#3b886d0096)"><path style=" stroke:none;fill-rule:nonzero;fill:#0d6275;fill-opacity:1;" d="M 235.527344 106.398438 C 238.976562 106.164062 242.480469 106.378906 245.910156 106.6875 C 259.292969 107.886719 272.484375 112.558594 283.8125 119.84375 C 290.824219 124.359375 297.023438 129.648438 303.296875 135.113281 C 306.882812 131.199219 310.210938 127.324219 314.144531 123.757812 C 315.597656 122.421875 317.011719 120.988281 318.753906 120.019531 C 320.03125 122.613281 321 125.171875 321.910156 127.925781 C 327.371094 144.511719 329.425781 162.21875 327.507812 179.621094 C 325.921875 194.015625 321.328125 208.703125 314.824219 221.609375 C 302.621094 245.792969 285.148438 266 264.96875 283.867188 L 249.433594 296.90625 L 225.84375 313.28125 C 201.304688 329.226562 175.21875 342.363281 147.90625 352.867188 L 129.605469 359.53125 L 94.082031 369.6875 L 162.878906 331.261719 C 176.515625 322.058594 189.453125 312 202.003906 301.382812 C 215.910156 289.621094 229.117188 277.277344 241.417969 263.8125 C 247.441406 257.222656 253.40625 250.441406 258.769531 243.292969 C 267.953125 231.066406 276.007812 217.851562 281.914062 203.707031 C 284.648438 197.15625 287.085938 190.472656 288.421875 183.476562 C 289.390625 178.4375 289.78125 173.265625 289.316406 168.148438 C 288.347656 157.609375 283.757812 147.183594 277.847656 138.523438 C 268.511719 124.84375 254.878906 115.523438 239.246094 110.425781 C 234.753906 108.953125 230.222656 108.003906 225.59375 107.132812 L 235.585938 106.433594 Z M 235.527344 106.398438 "/></g></g></svg>